<?xml version="1.0" encoding="UTF-8" standalone="no"?>
<svg
   xmlns:dc="http://purl.org/dc/elements/1.1/"
   xmlns:cc="http://creativecommons.org/ns#"
   xmlns:rdf="http://www.w3.org/1999/02/22-rdf-syntax-ns#"
   xmlns:svg="http://www.w3.org/2000/svg"
   xmlns="http://www.w3.org/2000/svg"
   xmlns:sodipodi="http://sodipodi.sourceforge.net/DTD/sodipodi-0.dtd"
   xmlns:inkscape="http://www.inkscape.org/namespaces/inkscape"
   sodipodi:docname="bicicle-delivery.svg"
   inkscape:version="1.0 (4035a4fb49, 2020-05-01)"
   id="svg8"
   version="1.1"
   viewBox="0 0 210 297"
   height="297mm"
   width="210mm">
  <defs
     id="defs2">
    <clipPath
       clipPathUnits="userSpaceOnUse"
       id="clipPath851">
      <path
         d="M 0,500 H 500 V 0 H 0 Z"
         id="path849" />
    </clipPath>
    <clipPath
       clipPathUnits="userSpaceOnUse"
       id="clipPath863">
      <path
         d="M 85.6355,94.7696 H 218.48 V 82.1335 H 85.6355 Z"
         id="path861" />
    </clipPath>
    <clipPath
       clipPathUnits="userSpaceOnUse"
       id="clipPath879">
      <path
         d="M 240.336,94.6627 H 400.043 V 82.1335 H 240.336 Z"
         id="path877" />
    </clipPath>
    <clipPath
       clipPathUnits="userSpaceOnUse"
       id="clipPath1101">
      <path
         d="M 0,500 H 500 V 0 H 0 Z"
         id="path1099" />
    </clipPath>
    <clipPath
       clipPathUnits="userSpaceOnUse"
       id="clipPath1181">
      <path
         d="m 266.5,82.607 c -0.137,-6.08 0.015,-24.328 0.015,-24.328 v 0 l 47.13,0.029 -0.008,12.397 c -0.009,12.782 3.383,25.276 9.885,35.056 v 0 c 10.374,15.602 22.909,24.112 17.977,32.61 v 0 c -6.828,11.768 -14.883,-0.009 -14.883,-0.009 v 0 C 302.445,117.942 301.81,82.057 298.403,82.057 v 0 c -3.705,0 6.147,50.674 24.995,82.615 v 0 c 11.643,19.732 4.151,23.124 -0.534,23.913 v 0 C 301.555,192.172 287.24,123.143 282.491,96.25 v 0 c -0.159,-0.903 -1.223,-0.674 -1.151,0.246 v 0 c 5.996,76.425 49.503,118.811 21.044,119.543 v 0 c -0.116,0.003 -0.228,0.004 -0.343,0.004 v 0 C 272.581,216.032 267.289,117.696 266.5,82.607"
         id="path1179" />
    </clipPath>
    <linearGradient
       x1="0"
       y1="0"
       x2="1"
       y2="0"
       gradientUnits="userSpaceOnUse"
       gradientTransform="matrix(-0.0206553,157.77022,124.66882,-0.0206553,304.53085,58.272842)"
       spreadMethod="pad"
       id="linearGradient1193">
      <stop
         style="stop-opacity:1;stop-color:#004355"
         offset="0"
         id="stop1187" />
      <stop
         style="stop-opacity:1;stop-color:#00e345"
         offset="0.991189"
         id="stop1189" />
      <stop
         style="stop-opacity:1;stop-color:#00e345"
         offset="1"
         id="stop1191" />
    </linearGradient>
    <clipPath
       clipPathUnits="userSpaceOnUse"
       id="clipPath1203">
      <path
         d="m 265.47,58.29 h 34.687 c 0,0 23.271,26.874 10.922,32.295 v 0 c -2.866,1.258 -5.672,1.816 -8.388,1.816 v 0 C 281.443,92.405 265.47,58.29 265.47,58.29"
         id="path1201" />
    </clipPath>
    <linearGradient
       x1="0"
       y1="0"
       x2="1"
       y2="0"
       gradientUnits="userSpaceOnUse"
       gradientTransform="matrix(0,34.111618,34.111618,0,290.0817,58.289642)"
       spreadMethod="pad"
       id="linearGradient1213">
      <stop
         style="stop-opacity:1;stop-color:#00a389"
         offset="0"
         id="stop1209" />
      <stop
         style="stop-opacity:1;stop-color:#7fcd98"
         offset="1"
         id="stop1211" />
    </linearGradient>
    <clipPath
       clipPathUnits="userSpaceOnUse"
       id="clipPath1223">
      <path
         d="M 0,500 H 500 V 0 H 0 Z"
         id="path1221" />
    </clipPath>
    <clipPath
       clipPathUnits="userSpaceOnUse"
       id="clipPath1295">
      <path
         d="m 152.918,188.479 c -2.848,-7.995 3.086,-12.786 3.086,-12.786 v 0 c 19.778,-11.817 24.135,-67.682 24.222,-68.833 v 0 c -0.45,1.078 -2.858,6.773 -13.62,32.091 v 0 c -15.697,36.928 -38.243,7.599 -20.58,1.237 v 0 c 17.662,-6.363 29.098,-44.099 29.098,-44.099 v 0 c 0,0 -30.255,42.608 -41.833,22.775 v 0 l 10.777,-13.799 c -1.527,0.48 -3.141,0.193 -4.758,-1.358 v 0 c -7.055,-6.77 -0.709,-21.392 -0.709,-21.392 v 0 l 8.956,-24.737 h 96.697 c 6.901,12.92 -11.247,16.911 -18.771,17.989 v 0 c 7.405,-0.647 25.491,-0.906 24.727,12.118 v 0 c -0.959,16.36 -24.656,8.468 -24.656,8.468 v 0 c 4.496,9.535 -5.491,8.035 -5.491,8.035 v 0 c 0,0 38.442,22.757 34.174,38.702 v 0 c -4.267,15.947 -42.121,-22.023 -42.121,-22.023 v 0 c 0,0 25.84,29.238 16.931,35.036 v 0 c -8.907,5.8 -27.393,-31.735 -27.393,-31.735 v 0 c 0,0 7.182,23.645 1.179,25.421 v 0 c -6.005,1.774 -9.232,-25.532 -9.232,-25.532 v 0 c 0,0 -2.464,23.594 -12.451,49.332 v 0 c -5.979,15.414 -13.9,20.645 -19.904,20.645 v 0 c -4.023,0 -7.185,-2.348 -8.328,-5.555"
         id="path1293" />
    </clipPath>
    <linearGradient
       x1="0"
       y1="0"
       x2="1"
       y2="0"
       gradientUnits="userSpaceOnUse"
       gradientTransform="matrix(0,136.45563,-136.45563,0,193.92929,57.5784)"
       spreadMethod="pad"
       id="linearGradient1307">
      <stop
         style="stop-opacity:1;stop-color:#004355"
         offset="0"
         id="stop1301" />
      <stop
         style="stop-opacity:1;stop-color:#00e345"
         offset="0.991189"
         id="stop1303" />
      <stop
         style="stop-opacity:1;stop-color:#00e345"
         offset="1"
         id="stop1305" />
    </linearGradient>
    <clipPath
       clipPathUnits="userSpaceOnUse"
       id="clipPath1317">
      <path
         d="m 147.875,57.578 h 34.686 c 0,0 23.272,26.874 10.923,32.296 v 0 c -2.867,1.258 -5.672,1.816 -8.388,1.816 v 0 C 163.847,91.693 147.875,57.578 147.875,57.578"
         id="path1315" />
    </clipPath>
    <linearGradient
       x1="0"
       y1="0"
       x2="1"
       y2="0"
       gradientUnits="userSpaceOnUse"
       gradientTransform="matrix(0,34.111618,34.111618,0,172.48543,57.5784)"
       spreadMethod="pad"
       id="linearGradient1327">
      <stop
         style="stop-opacity:1;stop-color:#00a389"
         offset="0"
         id="stop1323" />
      <stop
         style="stop-opacity:1;stop-color:#7fcd98"
         offset="1"
         id="stop1325" />
    </linearGradient>
    <clipPath
       clipPathUnits="userSpaceOnUse"
       id="clipPath1337">
      <path
         d="M 0,500 H 500 V 0 H 0 Z"
         id="path1335" />
    </clipPath>
    <clipPath
       clipPathUnits="userSpaceOnUse"
       id="clipPath1385">
      <path
         d="M 0,500 H 500 V 0 H 0 Z"
         id="path1383" />
    </clipPath>
  </defs>
  <sodipodi:namedview
     inkscape:window-maximized="1"
     inkscape:window-y="-8"
     inkscape:window-x="-8"
     inkscape:window-height="705"
     inkscape:window-width="1366"
     showgrid="false"
     inkscape:document-rotation="0"
     inkscape:current-layer="layer1"
     inkscape:document-units="mm"
     inkscape:cy="502.38455"
     inkscape:cx="534.36205"
     inkscape:zoom="0.7"
     inkscape:pageshadow="2"
     inkscape:pageopacity="0.0"
     borderopacity="1.0"
     bordercolor="#666666"
     pagecolor="#ffffff"
     id="base" />
  <metadata
     id="metadata5">
    <rdf:RDF>
      <cc:Work
         rdf:about="">
        <dc:format>image/svg+xml</dc:format>
        <dc:type
           rdf:resource="http://purl.org/dc/dcmitype/StillImage" />
        <dc:title></dc:title>
      </cc:Work>
    </rdf:RDF>
  </metadata>
  <g
     id="layer1"
     inkscape:groupmode="layer"
     inkscape:label="Layer 1">
    <g
       id="g841"
       inkscape:label="2291900"
       transform="matrix(0.35277777,0,0,-0.35277777,8.5674623,202.34325)">
      <path
         d="M 0,0 H 500 V 500 H 0 Z"
         style="fill:#ffffff;fill-opacity:1;fill-rule:nonzero;stroke:none"
         id="path843" />
      <g
         id="g845">
        <g
           id="g847"
           clip-path="url(#clipPath851)">
          <g
             id="g853"
             transform="translate(452.0508,261)">
            <path
               d="m 0,0 c 0,-112.347 -91.075,-203.422 -203.422,-203.422 -112.347,0 -203.422,91.075 -203.422,203.422 0,112.347 91.075,203.421 203.422,203.421 C -91.075,203.421 0,112.347 0,0"
               style="fill:#bae7ff;fill-opacity:1;fill-rule:nonzero;stroke:none"
               id="path855" />
          </g>
          <g
             id="g857">
            <g
               id="g859" />
            <g
               id="g871">
              <g
                 clip-path="url(#clipPath863)"
                 opacity="0.199997"
                 id="g869">
                <g
                   transform="translate(133.4819,94.6396)"
                   id="g867">
                  <path
                     d="m 0,0 c -11.237,-0.205 -61.901,-1.63 -44.087,-8.785 17.815,-7.154 120.485,-2.179 127.816,0 C 91.061,-6.606 67.061,1.228 0,0"
                     style="fill:#00052a;fill-opacity:1;fill-rule:nonzero;stroke:none"
                     id="path865" />
                </g>
              </g>
            </g>
          </g>
          <g
             id="g873">
            <g
               id="g875" />
            <g
               id="g887">
              <g
                 clip-path="url(#clipPath879)"
                 opacity="0.199997"
                 id="g885">
                <g
                   transform="translate(298.1768,94.6396)"
                   id="g883">
                  <path
                     d="m 0,0 c -13.583,0.259 -74.832,-1.63 -53.296,-8.785 21.535,-7.154 145.651,-2.179 154.515,0 C 110.082,-6.606 25.437,-0.484 0,0"
                     style="fill:#00052a;fill-opacity:1;fill-rule:nonzero;stroke:none"
                     id="path881" />
                </g>
              </g>
            </g>
          </g>
          <g
             id="g889"
             transform="translate(138.1489,101.7148)">
            <path
               d="m 0,0 c -26.926,0 -48.754,21.828 -48.754,48.754 0,26.926 21.828,48.754 48.754,48.754 26.926,0 48.754,-21.828 48.754,-48.754 C 48.754,21.828 26.926,0 0,0 m 0,102.46 c -29.661,0 -53.706,-24.045 -53.706,-53.706 0,-29.661 24.045,-53.706 53.706,-53.706 29.662,0 53.707,24.045 53.707,53.706 0,29.661 -24.045,53.706 -53.707,53.706"
               style="fill:#00b8e9;fill-opacity:1;fill-rule:nonzero;stroke:none"
               id="path891" />
          </g>
          <g
             id="g893"
             transform="translate(170.4575,107.5713)">
            <path
               d="M 0,0 C -23.691,-17.844 -57.362,-13.103 -75.206,10.589 -93.049,34.28 -88.309,67.951 -64.617,85.795 -40.925,103.639 -7.254,98.897 10.589,75.206 28.433,51.515 23.692,17.844 0,0 M -68.839,91.4 C -95.626,71.225 -100.987,33.154 -80.812,6.367 -60.636,-20.421 -22.565,-25.781 4.222,-5.605 31.01,14.569 36.37,52.641 16.194,79.428 -3.981,106.215 -42.052,111.575 -68.839,91.4"
               style="fill:#171743;fill-opacity:1;fill-rule:nonzero;stroke:none"
               id="path895" />
          </g>
          <g
             id="g897"
             transform="translate(192.8686,188.1787)">
            <path
               d="m 0,0 c -1.062,0 -2.11,0.481 -2.798,1.395 -10.446,13.869 -25.666,22.839 -42.859,25.26 -17.196,2.419 -34.299,-1.999 -48.168,-12.445 -1.543,-1.16 -3.738,-0.855 -4.901,0.69 -1.163,1.544 -0.854,3.739 0.69,4.902 15.362,11.569 34.311,16.469 53.355,13.784 C -25.637,30.905 -8.777,20.968 2.793,5.605 3.956,4.062 3.647,1.867 2.103,0.704 1.473,0.229 0.733,0 0,0"
               style="fill:#00b8e9;fill-opacity:1;fill-rule:nonzero;stroke:none"
               id="path899" />
          </g>
          <g
             id="g901"
             transform="translate(229.9009,164.2637)">
            <path
               d="m 0,0 c -0.84,-7.595 -0.062,-24.877 -5.769,-31.839 -2.373,-2.894 -3.328,-6.059 -5.283,-6.354 -3.994,-0.604 -7.948,-2.543 -6.891,-5.43 1.057,-2.887 15.217,-0.769 20.283,0.596 5.065,1.363 1.944,8.322 4.78,11.08 2.837,2.758 8.438,6.569 1.112,11.824 l 5.133,16.364 z"
               style="fill:#fc8843;fill-opacity:1;fill-rule:nonzero;stroke:none"
               id="path903" />
          </g>
          <g
             id="g905"
             transform="translate(238.1328,144.1406)">
            <path
               d="m 0,0 0.796,2.538 c 0,0 -2.413,0.319 -2.788,-2.538 -0.375,-2.857 -5.25,-3.586 -6.125,-2.409 -0.875,1.177 -3.25,3.871 -3.875,-0.538 -0.625,-4.41 -0.605,-6.623 -0.605,-6.623 0,0 -4.853,-5.824 -5.77,-7.162 -0.917,-1.338 -7.875,1 -8.75,-7.375 0,0 1.913,-2.52 13.956,-0.198 12.044,2.323 9.905,1.684 10.47,6.193 0.565,4.508 -0.475,4.88 3.487,7.505 C 4.758,-7.982 6.367,-3.143 0,0"
               style="fill:#000318;fill-opacity:1;fill-rule:nonzero;stroke:none"
               id="path907" />
          </g>
          <g
             id="g909"
             transform="translate(238.853,138.5986)">
            <path
               d="m 0,0 c 0,-1.139 -0.923,-2.062 -2.062,-2.062 -1.138,0 -2.061,0.923 -2.061,2.062 0,1.139 0.923,2.062 2.061,2.062 C -0.923,2.062 0,1.139 0,0"
               style="fill:#ff9800;fill-opacity:1;fill-rule:nonzero;stroke:none"
               id="path911" />
          </g>
          <g
             id="g913"
             transform="translate(228.1992,129.7519)">
            <path
               d="m 0,0 -4.464,1.661 c -0.544,0.202 -0.824,0.814 -0.621,1.359 0.202,0.543 0.814,0.824 1.358,0.621 L 0.736,1.979 C 1.281,1.777 1.561,1.166 1.358,0.622 1.155,0.077 0.544,-0.202 0,0"
               style="fill:#ff9800;fill-opacity:1;fill-rule:nonzero;stroke:none"
               id="path915" />
          </g>
          <g
             id="g917"
             transform="translate(225.2886,126.9375)">
            <path
               d="m 0,0 -4.463,1.66 c -0.545,0.203 -0.825,0.814 -0.622,1.359 0.202,0.543 0.814,0.824 1.358,0.621 L 0.737,1.979 C 1.281,1.776 1.561,1.165 1.358,0.621 1.156,0.076 0.544,-0.203 0,0"
               style="fill:#ff9800;fill-opacity:1;fill-rule:nonzero;stroke:none"
               id="path919" />
          </g>
          <g
             id="g921"
             transform="translate(211.0156,120.0332)">
            <path
               d="m 0,0 c 0,0 -0.625,-0.817 0,-2.314 0.625,-1.499 19.875,-0.915 23.375,1.481 3.5,2.395 2.25,9.083 3.312,10.77 1.063,1.688 9.206,6.088 4.509,10.169 0,0 -0.488,-3.772 -4.571,-6.689 C 22.351,10.364 23.996,4.229 23.417,3.25 22.837,2.271 20.877,-0.833 0,0"
               style="fill:#ff9800;fill-opacity:1;fill-rule:nonzero;stroke:none"
               id="path923" />
          </g>
          <g
             id="g925"
             transform="translate(210.7427,118.8525)">
            <path
               d="m 0,0 c 0,0 8.856,-0.514 14.773,0 5.916,0.515 10,1.348 10.333,5.931 0.333,4.584 0.333,5.75 2.083,7.417 1.75,1.667 4.25,3.464 5.334,6.69"
               style="fill:none;stroke:#ffffff;stroke-width:1;stroke-linecap:round;stroke-linejoin:round;stroke-miterlimit:10;stroke-dasharray:none;stroke-opacity:1"
               id="path927" />
          </g>
          <g
             id="g929"
             transform="translate(227.3159,164.9902)">
            <path
               d="m 0,0 2.585,-0.727 13.365,-3.758 3.303,-0.93 c 0,0 13.805,43.085 17.335,50.608 L 13.226,64.689 Z"
               style="fill:#005fae;fill-opacity:1;fill-rule:nonzero;stroke:none"
               id="path931" />
          </g>
          <g
             id="g933"
             transform="translate(253.2715,218.7764)">
            <path
               d="M 0,0 -12.729,-57.506"
               style="fill:none;stroke:#00052a;stroke-width:1;stroke-linecap:round;stroke-linejoin:round;stroke-miterlimit:10;stroke-dasharray:none;stroke-opacity:1"
               id="path935" />
          </g>
          <g
             id="g937"
             transform="translate(293.6045,240.0273)">
            <path
               d="m 0,0 h -3.823 c -2.509,0 -4.544,2.034 -4.544,4.544 v 9.82 c 0,2.51 2.035,4.545 4.544,4.545 H 0 c 2.51,0 4.545,-2.035 4.545,-4.545 V 4.544 C 4.545,2.034 2.51,0 0,0"
               style="fill:#00052a;fill-opacity:1;fill-rule:nonzero;stroke:none"
               id="path939" />
          </g>
          <g
             id="g941"
             transform="translate(253.0498,126.7178)">
            <path
               d="m 0,0 c -1.077,0 -2.071,0.702 -2.395,1.787 -0.394,1.323 0.359,2.716 1.682,3.109 l 76.909,22.911 c 0.579,0.193 0.635,0.718 0.611,1.012 -0.025,0.288 -0.162,0.784 -0.809,0.901 L 5.06,37.695 c -1.372,0.155 -2.36,1.392 -2.206,2.764 0.155,1.372 1.392,2.363 2.764,2.205 l 71.001,-7.982 c 0.033,-0.004 0.067,-0.008 0.1,-0.014 2.796,-0.429 4.833,-2.611 5.07,-5.43 0.236,-2.819 -1.408,-5.31 -4.093,-6.2 L 0.715,0.105 C 0.477,0.034 0.236,0 0,0"
               style="fill:#00b8e9;fill-opacity:1;fill-rule:nonzero;stroke:none"
               id="path943" />
          </g>
          <g
             id="g945"
             transform="translate(250.6767,131.5723)">
            <path
               d="m 0,0 c -9.607,0 -17.395,7.788 -17.395,17.396 0,9.607 7.788,17.395 17.395,17.395 9.607,0 17.396,-7.788 17.396,-17.395 C 17.396,7.788 9.607,0 0,0 m 0,39.757 c -12.35,0 -22.361,-10.012 -22.361,-22.361 0,-12.35 10.011,-22.362 22.361,-22.362 12.351,0 22.361,10.012 22.361,22.362 0,12.349 -10.01,22.361 -22.361,22.361"
               style="fill:#ff3000;fill-opacity:1;fill-rule:nonzero;stroke:none"
               id="path947" />
          </g>
          <g
             id="g949"
             transform="translate(250.6767,131.5723)">
            <path
               d="m 0,0 c -9.607,0 -17.395,7.788 -17.395,17.396 0,9.607 7.788,17.395 17.395,17.395 9.607,0 17.396,-7.788 17.396,-17.395 C 17.396,7.788 9.607,0 0,0 Z m 0,39.757 c -12.35,0 -22.361,-10.012 -22.361,-22.361 0,-12.35 10.011,-22.362 22.361,-22.362 12.351,0 22.361,10.012 22.361,22.362 0,12.349 -10.01,22.361 -22.361,22.361 z"
               style="fill:none;stroke:#ff3000;stroke-width:1;stroke-linecap:butt;stroke-linejoin:miter;stroke-miterlimit:10;stroke-dasharray:none;stroke-opacity:1"
               id="path951" />
          </g>
          <g
             id="g953"
             transform="translate(208.8989,372.4687)">
            <path
               d="m 0,0 c 0,0 7.25,-12.25 9.75,-12.25 2.5,0 21.5,8.75 21.5,8.75 l 7,-8.75 18.751,18.75 c 0,0 -8.5,-0.25 -14.751,9.5 0,0 15.751,16 11.001,29.5 C 48.501,59 17.5,73 0,46.75 c 0,0 -8,-8 -5.75,-18 C -3.5,18.75 -2.798,10 -6.149,4.75 -9.5,-0.5 0,0 0,0"
               style="fill:#ffb97b;fill-opacity:1;fill-rule:nonzero;stroke:none"
               id="path955" />
          </g>
          <g
             id="g957"
             transform="translate(240.1489,368.9687)">
            <path
               d="m 0,0 c 0,0 4.167,4.318 6.902,11.568 0,0 4.55,-7.624 -1.857,-17.874 z"
               style="fill:#ff4016;fill-opacity:1;fill-rule:nonzero;stroke:none"
               id="path959" />
          </g>
          <g
             id="g961"
             transform="translate(209.8784,384.812)">
            <path
               d="M 0,0 C 0.653,-0.838 1.861,-0.988 2.7,-0.335 3.538,0.317 3.688,1.526 3.035,2.364 2.382,3.202 1.173,3.352 0.335,2.699 -0.502,2.046 -0.653,0.838 0,0"
               style="fill:#001355;fill-opacity:1;fill-rule:nonzero;stroke:none"
               id="path963" />
          </g>
          <g
             id="g965"
             transform="translate(218.4004,375.8213)">
            <path
               d="M 0,0 C 0.09,-0.168 1.802,-5.736 -5.643,-8.146"
               style="fill:none;stroke:#ff4016;stroke-width:1;stroke-linecap:round;stroke-linejoin:round;stroke-miterlimit:10;stroke-dasharray:none;stroke-opacity:1"
               id="path967" />
          </g>
          <g
             id="g969"
             transform="translate(207.5679,390.3628)">
            <path
               d="M 0,0 C 0.066,0.132 3.264,4.785 7.662,0.643"
               style="fill:none;stroke:#001355;stroke-width:1;stroke-linecap:round;stroke-linejoin:round;stroke-miterlimit:10;stroke-dasharray:none;stroke-opacity:1"
               id="path971" />
          </g>
          <g
             id="g973"
             transform="translate(242.9223,400.9966)">
            <path
               d="m 0,0 c 0,0 -3.061,-1.08 -0.734,-6.423 0,0 -0.398,3.184 2.375,3.419"
               style="fill:none;stroke:#ff4016;stroke-width:1;stroke-linecap:round;stroke-linejoin:round;stroke-miterlimit:10;stroke-dasharray:none;stroke-opacity:1"
               id="path975" />
          </g>
          <g
             id="g977"
             transform="translate(217.3994,382.855)">
            <path
               d="m 0,0 c 0,0 -3.105,1.177 -3.489,0.173 -0.384,-1.004 6.123,-4.73 6.244,-4.525 0.121,0.206 1.9,6.883 0.108,6.983 C 1.072,2.731 0,0 0,0"
               style="fill:#ff593a;fill-opacity:1;fill-rule:nonzero;stroke:none"
               id="path979" />
          </g>
          <g
             id="g981"
             transform="translate(227.1484,317.8101)">
            <path
               d="m 0,0 c -8.428,-7.506 -30.617,-27.034 -34.25,-27.841 -4.5,-1 -14.25,0.5 -19.5,-3.5 -5.25,-4 -5,-12.25 -3.5,-13 1.5,-0.75 4.5,2.875 4.5,2.875 0,0 -2.25,-4.125 0,-5.625 2.25,-1.5 5.834,1.833 5.834,1.833 0,0 -2.584,-4.833 2.416,-6.333 2.488,-0.746 6.016,0.246 8.4,1.138 1.065,0.4 1.148,1.876 0.141,2.406 l -0.308,0.162 c -1.302,0.686 -1.747,2.348 -0.937,3.576 0.738,1.118 1.961,2.233 3.954,2.468 4.064,0.478 29.153,14.408 46.644,31.82 C 6.703,-8.349 2.194,-3.146 0,0"
               style="fill:#fc8843;fill-opacity:1;fill-rule:nonzero;stroke:none"
               id="path983" />
          </g>
          <g
             id="g985"
             transform="translate(221.1284,323.3721)">
            <path
               d="m 0,0 c -8.428,-7.506 -30.617,-27.034 -34.249,-27.841 -4.5,-1 -14.25,0.5 -19.5,-3.5 -5.25,-4 -5,-12.25 -3.5,-13 1.5,-0.75 4.5,2.875 4.5,2.875 0,0 -2.25,-4.125 0,-5.625 2.25,-1.5 5.833,1.833 5.833,1.833 0,0 -2.583,-4.833 2.417,-6.333 2.487,-0.746 6.015,0.246 8.399,1.138 1.066,0.4 1.148,1.876 0.141,2.406 l -0.308,0.162 c -1.302,0.686 -1.747,2.348 -0.937,3.576 0.738,1.118 1.961,2.233 3.955,2.468 4.064,0.478 29.152,14.408 46.643,31.82 C 6.703,-8.349 2.194,-3.146 0,0"
               style="fill:#ffb97b;fill-opacity:1;fill-rule:nonzero;stroke:none"
               id="path987" />
          </g>
          <g
             id="g989"
             transform="translate(272.1494,377.6353)">
            <path
               d="m 0,0 c 0,0 -12.863,6.333 -19.099,-3.333 -6.235,-9.667 -9.485,-32 -15.027,-39.667 -5.541,-7.667 -12.423,-14.333 -12.423,-14.333 0,0 0.524,-1.023 1.548,-2.492 2.194,-3.146 6.703,-8.349 13.394,-10.021 1.761,-0.441 3.671,-0.639 5.731,-0.487 0,0 21.689,23.81 25.876,38 C 6,-12 0,0 0,0"
               style="fill:#ff7800;fill-opacity:1;fill-rule:nonzero;stroke:none"
               id="path991" />
          </g>
          <g
             id="g993"
             transform="translate(187.9092,286.9019)">
            <path
               d="M 0,0 C 0,0 6.04,1.25 6.02,4.417"
               style="fill:none;stroke:#00052a;stroke-width:1;stroke-linecap:round;stroke-linejoin:round;stroke-miterlimit:10;stroke-dasharray:none;stroke-opacity:1"
               id="path995" />
          </g>
          <g
             id="g997"
             transform="translate(272.1494,377.6353)">
            <path
               d="m 0,0 c 0,0 -12.125,6.458 -19.099,-3.333 -2.565,-3.603 -5.902,-14.084 -5.902,-14.084 -0.8,-12.417 3.609,-27.615 3.06,-30.5 -0.81,-4.25 5.441,-11.25 15.691,-11.25 l 8.916,-18 c 0,0 21.392,3.184 36.818,16.664 0.77,0.672 1.53,1.362 2.266,2.086 0,0 -11.5,41.334 -41.75,58.417"
               style="fill:#ff9800;fill-opacity:1;fill-rule:nonzero;stroke:none"
               id="path999" />
          </g>
          <g
             id="g1001"
             transform="translate(260.6494,250.7187)">
            <path
               d="M 0,0 C 1.756,-3.033 5.551,-4.138 9.887,-9.87 9.185,-5.496 7.924,0.485 6.933,4.975 0.739,3.715 -1.646,2.841 0,0"
               style="fill:#005fae;fill-opacity:1;fill-rule:nonzero;stroke:none"
               id="path1003" />
          </g>
          <g
             id="g1005"
             transform="translate(170.4824,240.8486)">
            <path
               d="m 0,0 119.89,4.06 c 0.991,0.034 1.777,0.846 1.777,1.837 v 1.384 c 0,1.016 0.823,1.839 1.839,1.839 h 91.191 c 2.561,0 4.636,-2.076 4.636,-4.637 0,-2.5 -1.981,-4.549 -4.48,-4.633 l -99.409,-3.337 c -0.991,-0.034 -1.777,-0.846 -1.777,-1.838 0,-1.034 -0.854,-1.865 -1.888,-1.838 L 0,-4.213 Z"
               style="fill:#00052a;fill-opacity:1;fill-rule:nonzero;stroke:none"
               id="path1007" />
          </g>
          <g
             id="g1009"
             transform="translate(258.9082,255.831)">
            <path
               d="m 0,0 v 0 c 0.436,-3.86 3.918,-6.636 7.777,-6.2 l 50.827,5.734 c 3.86,0.435 6.636,3.917 6.201,7.777 l -0.147,1.296 c -0.443,3.929 -4.038,6.721 -7.955,6.178 L 6.022,7.754 C 2.244,7.23 -0.427,3.79 0,0"
               style="fill:#ff3000;fill-opacity:1;fill-rule:nonzero;stroke:none"
               id="path1011" />
          </g>
          <g
             id="g1013"
             transform="translate(137.479,148.9678)">
            <path
               d="m 0,0 c -0.635,0 -1.28,0.152 -1.879,0.472 -1.95,1.04 -2.686,3.463 -1.647,5.412 l 29.283,54.883 c 1.205,2.256 1.943,4.689 2.195,7.23 0.808,8.152 3.509,32.164 4.634,42.109 0.126,1.116 -0.841,1.99 -1.263,2.313 -0.086,0.067 -0.169,0.136 -0.25,0.209 -1.313,1.19 -12.923,11.75 -15.991,16.046 -1.765,2.472 -1.748,5.653 0.045,8.104 1.766,2.415 4.864,3.421 7.712,2.503 0.087,-0.028 0.172,-0.059 0.257,-0.093 L 59.32,124.715 c 2.052,-0.819 3.051,-3.147 2.231,-5.198 -0.82,-2.051 -3.149,-3.052 -5.198,-2.23 L 24.51,130.008 c 3.335,-3.473 8.441,-8.282 11.826,-11.353 3.031,-2.396 4.598,-5.915 4.199,-9.447 -1.122,-9.93 -3.819,-33.896 -4.622,-42 C 35.558,63.62 34.515,60.186 32.815,57.001 L 3.533,2.118 C 2.813,0.769 1.43,0 0,0"
               style="fill:#00052a;fill-opacity:1;fill-rule:nonzero;stroke:none"
               id="path1015" />
          </g>
          <g
             id="g1017"
             transform="translate(249.4687,145.4043)">
            <path
               d="M 0,0 C -2.271,0 -4.426,0.959 -5.982,2.716 L -81.01,87.482 c -1.465,1.655 -1.31,4.183 0.343,5.647 1.655,1.465 4.182,1.31 5.647,-0.344 L 0.008,8.019 24.285,81.687 c 0.969,2.949 3.482,5.04 6.558,5.458 3.076,0.418 6.054,-0.929 7.774,-3.513 l 43.416,-65.211 36.695,78.118 c 0.937,2 3.318,2.859 5.319,1.923 2,-0.938 2.861,-3.319 1.924,-5.319 L 89.349,15.03 C 88.118,12.406 85.558,10.642 82.667,10.425 79.781,10.21 76.98,11.573 75.374,13.987 L 31.958,79.199 7.679,5.535 C 6.769,2.766 4.521,0.76 1.665,0.171 1.107,0.056 0.551,0 0,0"
               style="fill:#00052a;fill-opacity:1;fill-rule:nonzero;stroke:none"
               id="path1019" />
          </g>
          <g
             id="g1021"
             transform="translate(147.2134,150.4687)">
            <path
               d="m 0,0 c 0,-5.006 -4.058,-9.064 -9.064,-9.064 -5.006,0 -9.065,4.058 -9.065,9.064 0,5.006 4.059,9.064 9.065,9.064 C -4.058,9.064 0,5.006 0,0"
               style="fill:#ff3000;fill-opacity:1;fill-rule:nonzero;stroke:none"
               id="path1023" />
          </g>
          <g
             id="g1025"
             transform="translate(342.1729,155.5215)">
            <path
               d="m 0,0 c 0,-5.419 -4.393,-9.813 -9.813,-9.813 -5.418,0 -9.812,4.394 -9.812,9.813 0,5.42 4.394,9.813 9.812,9.813 C -4.393,9.813 0,5.42 0,0"
               style="fill:#ff3000;fill-opacity:1;fill-rule:nonzero;stroke:none"
               id="path1027" />
          </g>
          <g
             id="g1029"
             transform="translate(332.3604,102.7441)">
            <path
               d="m 0,0 c -29.148,0 -52.777,23.629 -52.777,52.777 0,29.149 23.629,52.779 52.777,52.779 29.148,0 52.778,-23.63 52.778,-52.779 C 52.778,23.629 29.148,0 0,0 m 0,110.917 c -32.109,0 -58.139,-26.03 -58.139,-58.14 0,-32.109 26.03,-58.138 58.139,-58.138 32.109,0 58.139,26.029 58.139,58.138 0,32.11 -26.03,58.14 -58.139,58.14"
               style="fill:#00b8e9;fill-opacity:1;fill-rule:nonzero;stroke:none"
               id="path1031" />
          </g>
          <g
             id="g1033"
             transform="translate(367.3359,109.084)">
            <path
               d="m 0,0 c -25.647,-19.316 -62.097,-14.185 -81.413,11.463 -19.316,25.646 -14.185,62.097 11.462,81.413 25.647,19.316 62.097,14.185 81.414,-11.463 C 30.778,55.767 25.646,19.316 0,0 m -74.521,98.944 c -28.999,-21.84 -34.801,-63.053 -12.96,-92.051 21.839,-28.999 63.053,-34.802 92.051,-12.961 28.998,21.84 34.801,63.053 12.96,92.051 -21.84,28.998 -63.052,34.801 -92.051,12.961"
               style="fill:#171743;fill-opacity:1;fill-rule:nonzero;stroke:none"
               id="path1035" />
          </g>
          <g
             id="g1037"
             transform="translate(391.5957,196.6338)">
            <path
               d="m 0,0 c -1.062,0 -2.11,0.48 -2.799,1.395 -11.353,15.074 -27.898,24.825 -46.586,27.457 -18.687,2.625 -37.281,-2.174 -52.357,-13.528 -1.543,-1.161 -3.738,-0.854 -4.902,0.691 -1.162,1.544 -0.853,3.738 0.691,4.901 16.568,12.479 37.007,17.76 57.544,14.866 C -27.869,32.891 -9.686,22.174 2.793,5.605 3.956,4.062 3.647,1.867 2.103,0.704 1.473,0.229 0.733,0 0,0"
               style="fill:#00b8e9;fill-opacity:1;fill-rule:nonzero;stroke:none"
               id="path1039" />
          </g>
          <g
             id="g1041"
             transform="translate(286.6494,169.2265)">
            <path
               d="m 0,0 h -14.463 c -4.66,0 -8.982,-2.428 -11.408,-6.406 l -23.591,-38.697 c -2.426,-3.978 -6.748,-6.405 -11.408,-6.405 h -9.881"
               style="fill:none;stroke:#00052a;stroke-width:5;stroke-linecap:round;stroke-linejoin:round;stroke-miterlimit:10;stroke-dasharray:none;stroke-opacity:1"
               id="path1043" />
          </g>
          <g
             id="g1045"
             transform="translate(276.3154,199.1357)">
            <path
               d="m 0,0 c 4,-3.667 -0.5,-7 -3.5,-11.167 -3,-4.167 -4.807,-8.174 -7.5,-8.5 -5.5,-0.667 -11,-3.167 -9.666,-7.167 1.333,-4 20.833,-1.666 27.833,0 7,1.667 3,11.333 7,15 4,3.667 11.833,8.667 2,16.167 C 10.72,8.487 7.171,13.25 5.084,16.678 L -7.743,8.273 C -5.283,5.452 -2.143,1.964 0,0"
               style="fill:#ffb97b;fill-opacity:1;fill-rule:nonzero;stroke:none"
               id="path1047" />
          </g>
          <g
             id="g1049"
             transform="translate(311.6338,317.1323)">
            <path
               d="m 0,0 c -15.427,-13.48 -36.818,-16.664 -36.818,-16.664 -15.304,-4.232 -48.167,-32.25 -54.917,-38.462 -6.75,-6.213 0.75,-15.538 5.702,-20.288 4.332,-4.156 34.455,-29.897 41.633,-35.87 0.948,-0.788 2.307,-0.843 3.316,-0.134 l 11.001,7.736 c 1.152,0.809 1.484,2.353 0.798,3.583 -1.166,2.093 -3.358,5.971 -4.199,8.435 -7,20.5 -14.75,20.5 -17.5,25.25 -2.75,4.75 5.75,4 24.5,8.75 18.75,4.75 35.5,10 39.25,27 C 15.658,-17.549 5.018,-5.038 0,0"
               style="fill:#0066d6;fill-opacity:1;fill-rule:nonzero;stroke:none"
               id="path1051" />
          </g>
          <g
             id="g1053"
             transform="translate(305.8994,298.7187)">
            <path
               d="m 0,0 c 0,0 2.75,-6.25 -4.75,-9.5 -7.5,-3.25 -52.945,-21.75 -54.098,-30"
               style="fill:none;stroke:#00052a;stroke-width:1;stroke-linecap:round;stroke-linejoin:round;stroke-miterlimit:10;stroke-dasharray:none;stroke-opacity:1"
               id="path1055" />
          </g>
          <g
             id="g1057"
             transform="translate(313.8994,308.7187)">
            <path
               d="m 0,0 c 0,0 1.25,-18.5 5.25,-19 4,-0.5 5.74,0 5.74,0"
               style="fill:none;stroke:#00052a;stroke-width:1;stroke-linecap:round;stroke-linejoin:round;stroke-miterlimit:10;stroke-dasharray:none;stroke-opacity:1"
               id="path1059" />
          </g>
          <g
             id="g1061"
             transform="translate(243.8989,262.0059)">
            <path
               d="m 0,0 c 0,0 -15.25,-3.837 -16.5,-6.312 -1.25,-2.475 14,4.275 20.75,1.275"
               style="fill:none;stroke:#00052a;stroke-width:1;stroke-linecap:round;stroke-linejoin:round;stroke-miterlimit:10;stroke-dasharray:none;stroke-opacity:1"
               id="path1063" />
          </g>
          <g
             id="g1065"
             transform="translate(286.0205,363.4878)">
            <path
               d="m 0,0 33.386,-76.316 c 3.178,-7.268 11.223,-11.087 18.861,-8.945 14.479,4.061 35.946,10.661 39.215,14.912 5,6.504 -0.333,16.496 -0.333,16.496 l 2,7.498 c 2,7.497 -9.334,29.502 -12,31.169 -2.667,1.667 -9,2.333 -9,2.333 0,0 -12,24.667 -23,29.244 -11,4.577 -42.334,-5.244 -42.334,-5.244 0,0 -1.406,4.471 -14.333,8.834 -13.333,4.5 -21.782,-5.639 -21.782,-5.639 0,0 9.364,5.371 19.077,-2.419 l 2.306,-1.775 C -4.479,7.488 -1.749,3.997 0,0"
               style="fill:#ff3000;fill-opacity:1;fill-rule:nonzero;stroke:none"
               id="path1067" />
          </g>
          <g
             id="g1069"
             transform="translate(263.2559,346.7114)">
            <path
               d="m 0,0 c -4.187,-13.616 -25.875,-36.464 -25.875,-36.464 -13.542,-0.959 -20.673,12.475 -20.673,12.475 0,0 6.881,6.397 12.423,13.754 5.541,7.356 8.791,28.787 15.027,38.063 C -12.863,37.104 0,31.026 0,31.026 0,31.026 6,19.511 0,0"
               style="fill:#ff9800;fill-opacity:1;fill-rule:nonzero;stroke:none"
               id="path1071" />
          </g>
          <g
             id="g1073"
             transform="translate(263.2559,346.7114)">
            <path
               d="m 0,0 c -1.841,-5.987 -7.066,-13.759 -12.344,-20.589 1.352,-2.627 4.427,-5.328 8.789,-6.708 2.58,6.42 6.967,20.955 5.313,34.432 C 1.345,4.894 0.773,2.515 0,0"
               style="fill:#e17b00;fill-opacity:1;fill-rule:nonzero;stroke:none"
               id="path1075" />
          </g>
          <g
             id="g1077"
             transform="translate(269.5244,406.0937)">
            <path
               d="M 0,0 C 7.214,-1.089 10.25,3.125 10.25,3.125 6.048,2.093 1.988,2.54 -0.646,3.079 2.184,4.704 5.694,8.315 3.458,15.875 2.852,17.926 2.018,19.646 1.039,21.085 5.341,24.803 13.5,21.5 13.5,21.5 c -8.015,7.269 -13.595,4.95 -15.918,3.196 -0.994,0.727 -2.035,1.29 -3.082,1.701 5.738,7.671 1,12.853 1,12.853 0.375,-3.75 -2.25,-6.875 -2.25,-6.875 1.375,3 0,5.25 0,5.25 -1.125,-6 -8.125,-11.417 -8.125,-11.417 0,0 -9.667,6.834 -23.667,3.834 -14,-3 -23,-15 -23,-15 0,0 1.75,11.333 16.333,17 14.362,5.58 18.833,7.5 19.167,9 0,0 -9.516,-3.588 -20.667,-6.5 -9.943,-2.598 -21,-9.834 -16.833,-22.167 0,0 -8.334,-1.667 -8.5,-12.667 -0.058,-3.793 1.51,-6.615 3.589,-8.685 l 0.66,3.352 c 0,0 3.417,-5.167 5.584,-4.667 0,0 -2,7.334 -1.5,8.667 0,0 2.5,-8.735 12.5,-8.701 0,0 -3.833,4.201 -4,5.868 0,0 5.167,-5.369 15.833,-4.518 l -0.666,3.351 9.5,-8.167 c 0,0 -3.167,9.5 0.666,12.334 3.834,2.833 8.834,-1.369 8.334,-7.518 -0.5,-6.149 -4,-10.482 -4,-10.482 h 5.5 c 0,0 -3,-1 -4.667,-1.834 0,0 2.804,-3 8.235,0 5.432,3 4.432,7.167 4.432,7.167 0,0 5.958,4.304 7.863,11.026 C 8.473,-10.151 15.625,1 15.625,1 7.25,-3.875 0,0 0,0"
               style="fill:#00052a;fill-opacity:1;fill-rule:nonzero;stroke:none"
               id="path1079" />
          </g>
          <g
             id="g1081"
             transform="translate(238.0239,413.8437)">
            <path
               d="m 0,0 c 0,0 -19.261,5.46 -20.193,16.417 -1.77,-1.222 -3.328,-2.485 -4.654,-3.669 C -24.843,12.729 -21.987,-3.124 0,0"
               style="fill:#00144c;fill-opacity:1;fill-rule:nonzero;stroke:none"
               id="path1083" />
          </g>
          <g
             id="g1085"
             transform="translate(233.9668,419.0937)">
            <path
               d="M 0,0 C 0,0 5.807,-4.875 12.307,-1.25 12.307,-1.25 2.692,-1 0,0"
               style="fill:#00144c;fill-opacity:1;fill-rule:nonzero;stroke:none"
               id="path1087" />
          </g>
        </g>
      </g>
      <text
         transform="matrix(0.93290599,0.36012,0.36012,-0.93290599,311.5859,339.0529)"
         style="font-style:italic;font-variant:normal;font-weight:900;font-stretch:normal;font-size:8.11507px;font-family:'FSP DEMO -Gln Grtsq Blck tlc';-inkscape-font-specification:FONTSPRINGDEMO-GalanoGrotesqueBlackItalicRegular;writing-mode:lr-tb;fill:#ffffff;fill-opacity:1;fill-rule:nonzero;stroke:none"
         id="text1093"><tspan
           x="0 4.9339643 10.65509 16.035383 21.626669 26.560633 31.811085"
           y="0"
           sodipodi:role="line"
           id="tspan1089">EXPRESS</tspan><tspan
           x="0 5.3316026 10.265567 15.451098 21.464367 23.833969 30.13938"
           y="9.7380877"
           sodipodi:role="line"
           id="tspan1091">SERVICE</tspan></text>
      <g
         id="g1095">
        <g
           id="g1097"
           clip-path="url(#clipPath1101)">
          <g
             id="g1103"
             transform="translate(319.458,368.7393)">
            <path
               d="m 0,0 c 0.146,0.047 0.293,0.086 0.439,0.117 2.848,0.668 5.776,-0.95 6.683,-3.783 0.955,-2.979 -0.686,-6.167 -3.665,-7.122 -2.979,-0.954 -6.168,0.687 -7.123,3.666 -0.907,2.833 0.535,5.851 3.24,6.962 0.138,0.06 0.28,0.113 0.426,0.16 -4.207,-1.348 -6.525,-5.852 -5.178,-10.06 1.349,-4.207 5.853,-6.525 10.06,-5.177 4.208,1.348 6.525,5.852 5.178,10.059 C 8.712,-0.97 4.208,1.348 0,0"
               style="fill:#ffffff;fill-opacity:1;fill-rule:nonzero;stroke:none"
               id="path1105" />
          </g>
          <g
             id="g1107"
             transform="translate(316.584,363.1543)">
            <path
               d="M 0,0 C 0.748,-2.336 3.249,-3.623 5.585,-2.875 7.921,-2.126 9.208,0.375 8.459,2.71 7.758,4.9 5.516,6.168 3.313,5.702 3.167,5.667 3.021,5.632 2.874,5.585 2.729,5.538 2.588,5.482 2.448,5.425 0.386,4.525 -0.702,2.19 0,0"
               style="fill:#ffffff;fill-opacity:1;fill-rule:nonzero;stroke:none"
               id="path1109" />
          </g>
          <g
             id="g1111"
             transform="translate(275.6816,199.6357)">
            <path
               d="m 0,0 c -0.404,0.42 -1.125,0.236 -1.276,-0.326 -0.101,-0.372 -0.173,-0.89 -0.184,-1.61 -0.039,-2.667 1.507,-4.833 -1.184,-7.333 -2.689,-2.5 -5.481,-7.846 -5.481,-7.846 0,0 -12.374,-0.786 -13.374,-9.321 0,0 0.02,-4.222 16.868,-2.767 10.382,0.896 14.924,1.164 16.008,4.581 0.939,2.965 2.79,9.452 4.624,11.069 1.833,1.617 12.979,9.557 4,16.117 -8.98,6.561 -7.667,6.1 -7.667,6.1 C 11.607,7.956 11.348,6.885 11.711,5.937 12.284,4.44 12.565,2.009 9.74,-0.001 6.867,-2.045 2.828,-2.938 0,0"
               style="fill:#000318;fill-opacity:1;fill-rule:nonzero;stroke:none"
               id="path1113" />
          </g>
          <g
             id="g1115"
             transform="translate(254.1826,173.2002)">
            <path
               d="m 0,0 c 0,0 -0.05,-0.863 0,-3.106 0.049,-2.245 16.25,-4.592 29.166,-0.868 0,0 7.25,1.557 7.917,8.974 C 37.75,12.417 47,16.34 47,19.753 c 0,3.414 -2.834,6.539 -2.834,6.539 0,0 0.535,-2.952 -2.232,-6.539 C 39.166,16.167 33.35,10.75 32.467,4.417 31.583,-1.917 13.25,-1.825 10.583,-1.871 7.916,-1.917 0,0 0,0"
               style="fill:#ff9800;fill-opacity:1;fill-rule:nonzero;stroke:none"
               id="path1117" />
          </g>
          <g
             id="g1119"
             transform="translate(292.7061,194.6279)">
            <path
               d="m 0,0 c 0,-1.86 -1.508,-3.368 -3.368,-3.368 -1.86,0 -3.367,1.508 -3.367,3.368 0,1.859 1.507,3.367 3.367,3.367 C -1.508,3.367 0,1.859 0,0"
               style="fill:#ff9800;fill-opacity:1;fill-rule:nonzero;stroke:none"
               id="path1121" />
          </g>
          <g
             id="g1123"
             transform="translate(277.376,185.7754)">
            <path
               d="m 0,0 -5.438,2.712 c -0.751,0.375 -1.059,1.296 -0.685,2.047 0.375,0.751 1.296,1.059 2.047,0.684 L 1.362,2.731 C 2.113,2.357 2.422,1.437 2.047,0.685 1.673,-0.066 0.752,-0.374 0,0"
               style="fill:#ff9800;fill-opacity:1;fill-rule:nonzero;stroke:none"
               id="path1125" />
          </g>
          <g
             id="g1127"
             transform="translate(274.1357,181.7754)">
            <path
               d="m 0,0 -5.438,2.712 c -0.751,0.375 -1.059,1.296 -0.685,2.047 0.375,0.751 1.296,1.059 2.047,0.684 L 1.362,2.731 C 2.113,2.357 2.422,1.437 2.047,0.685 1.673,-0.066 0.752,-0.374 0,0"
               style="fill:#ff9800;fill-opacity:1;fill-rule:nonzero;stroke:none"
               id="path1129" />
          </g>
          <g
             id="g1131"
             transform="translate(300.0479,196.6338)">
            <path
               d="m 0,0 c 0,0 0.036,-3.871 -2.811,-6.61 -2.846,-2.741 -6.264,-5.626 -7.899,-12.116 -1.634,-6.488 -12.864,-10.783 -35.155,-6.579"
               style="fill:none;stroke:#ffffff;stroke-width:1;stroke-linecap:round;stroke-linejoin:round;stroke-miterlimit:10;stroke-dasharray:none;stroke-opacity:1"
               id="path1133" />
          </g>
          <g
             id="g1135"
             transform="translate(120.8149,154.9668)">
            <path
               d="m 0,0 -2.299,-2.167 -0.133,2.521 -2.255,-2.476 -0.619,3.99 -1.945,-3.371 c -0.531,2.122 -0.531,6.058 -0.531,6.058 l -2.654,-5.837 c -1.768,3.36 -1.06,8.545 -1.06,8.545 -1.415,-1.713 -3.538,-8.545 -3.538,-8.545 -1.591,4.422 -0.707,10.375 -0.707,10.375 -2.653,-2.714 -5.837,-8.96 -5.837,-8.96 C -21.754,27.9 0.708,32.805 0.708,32.805 -4.774,26.565 -6.19,18.35 -6.19,18.35 c 0,0 1.944,3.905 4.686,5.091 0,0 -2.034,-8.363 -2.299,-11.546 0,0 1.99,4.509 3.715,5.172 0,0 -1.239,-5.837 -1.416,-8.887 l 2.212,2.616 V 5.925 L 2.432,7.649 V 3.803 l 1.591,1.459 0.398,-5.659 -4.642,-2.085 z"
               style="fill:#ffffff;fill-opacity:1;fill-rule:nonzero;stroke:none"
               id="path1137" />
          </g>
          <g
             id="g1139"
             transform="translate(375.3633,136.6953)">
            <path
               d="m 0,0 c 0,0 -3.008,-20.34 -30.951,-27.591 l 3.714,5.659 -7.251,-2.652 5.305,7.074 -8.489,-1.945 5.659,7.484 -7.428,-1.825 4.245,5.925 h -4.245 l 2.653,3.626 -3.714,-1.238 3.007,5.483 h -3.007 c 0,0 3.184,6.94 3.891,7.361 0.708,0.421 6.72,-1.879 6.72,-1.879 0,0 -3.005,-2.83 -2.298,-2.652 0.707,0.177 4.952,1.922 4.952,1.922 l -2.122,-4.929 7.163,2.741 -4.158,-6.279 9.021,4.511 -5.129,-7.517 11.319,7.163 -7.582,-10.537 c 0,0 11.296,8.414 12.888,11.244 0,0 0.354,-6.367 -9.727,-14.768 0,0 7.074,3.524 15.564,13.619"
               style="fill:#ffffff;fill-opacity:1;fill-rule:nonzero;stroke:none"
               id="path1141" />
          </g>
          <g
             id="g1143"
             transform="translate(341.916,172.3828)">
            <path
               d="M 0,0 C -0.265,-0.64 39.549,7.495 79.098,0"
               style="fill:#ffffff;fill-opacity:1;fill-rule:nonzero;stroke:none"
               id="path1145" />
          </g>
          <g
             id="g1147"
             transform="translate(157.2305,170.8584)">
            <path
               d="M 0,0 C -0.511,-0.64 76.345,7.495 152.691,0"
               style="fill:#ffffff;fill-opacity:1;fill-rule:nonzero;stroke:none"
               id="path1149" />
          </g>
          <g
             id="g1151"
             transform="translate(156.6431,160.5762)">
            <path
               d="M 0,0 C -0.29,-0.999 43.255,7.413 86.513,0"
               style="fill:#ffffff;fill-opacity:1;fill-rule:nonzero;stroke:none"
               id="path1153" />
          </g>
          <g
             id="g1155"
             transform="translate(358.6191,163.7754)">
            <path
               d="M 0,0 C -0.265,-0.64 39.548,7.495 79.098,0"
               style="fill:#ffffff;fill-opacity:1;fill-rule:nonzero;stroke:none"
               id="path1157" />
          </g>
          <g
             id="g1159"
             transform="translate(275.457,278.4966)">
            <path
               d="M 0,0 C -0.171,-0.413 25.52,4.837 51.041,0"
               style="fill:#ffffff;fill-opacity:1;fill-rule:nonzero;stroke:none"
               id="path1161" />
          </g>
          <g
             id="g1163"
             transform="translate(259.8535,269.6772)">
            <path
               d="M 0,0 C -0.265,-0.639 39.549,7.496 79.098,0"
               style="fill:#ffffff;fill-opacity:1;fill-rule:nonzero;stroke:none"
               id="path1165" />
          </g>
          <g
             id="g1167"
             transform="translate(284.21,388.7842)">
            <path
               d="M 0,0 C -0.266,-0.639 39.548,7.496 79.097,0"
               style="fill:#ffffff;fill-opacity:1;fill-rule:nonzero;stroke:none"
               id="path1169" />
          </g>
          <g
             id="g1171"
             transform="translate(302.3662,395.3706)">
            <path
               d="M 0,0 C -0.174,-0.418 25.897,4.908 51.796,0"
               style="fill:#ffffff;fill-opacity:1;fill-rule:nonzero;stroke:none"
               id="path1173" />
          </g>
        </g>
      </g>
      <g
         id="g1175">
        <g
           id="g1177"
           clip-path="url(#clipPath1181)">
          <g
             id="g1183">
            <g
               id="g1185">
              <path
                 d="m 266.5,82.607 c -0.137,-6.08 0.015,-24.328 0.015,-24.328 v 0 l 47.13,0.029 -0.008,12.397 c -0.009,12.782 3.383,25.276 9.885,35.056 v 0 c 10.374,15.602 22.909,24.112 17.977,32.61 v 0 c -6.828,11.768 -14.883,-0.009 -14.883,-0.009 v 0 C 302.445,117.942 301.81,82.057 298.403,82.057 v 0 c -3.705,0 6.147,50.674 24.995,82.615 v 0 c 11.643,19.732 4.151,23.124 -0.534,23.913 v 0 C 301.555,192.172 287.24,123.143 282.491,96.25 v 0 c -0.159,-0.903 -1.223,-0.674 -1.151,0.246 v 0 c 5.996,76.425 49.503,118.811 21.044,119.543 v 0 c -0.116,0.003 -0.228,0.004 -0.343,0.004 v 0 C 272.581,216.032 267.289,117.696 266.5,82.607"
                 style="fill:url(#linearGradient1193);stroke:none"
                 id="path1195" />
            </g>
          </g>
        </g>
      </g>
      <g
         id="g1197">
        <g
           id="g1199"
           clip-path="url(#clipPath1203)">
          <g
             id="g1205">
            <g
               id="g1207">
              <path
                 d="m 265.47,58.29 h 34.687 c 0,0 23.271,26.874 10.922,32.295 v 0 c -2.866,1.258 -5.672,1.816 -8.388,1.816 v 0 C 281.443,92.405 265.47,58.29 265.47,58.29"
                 style="fill:url(#linearGradient1213);stroke:none"
                 id="path1215" />
            </g>
          </g>
        </g>
      </g>
      <g
         id="g1217">
        <g
           id="g1219"
           clip-path="url(#clipPath1223)">
          <g
             id="g1225"
             transform="translate(286.7988,58.458)">
            <path
               d="m 0,0 c -0.056,0 -0.111,0.007 -0.167,0.022 -0.312,0.092 -0.491,0.413 -0.399,0.718 6.674,22.084 23.497,31.804 23.666,31.9 0.282,0.161 0.641,0.064 0.805,-0.212 C 24.068,32.153 23.972,31.8 23.69,31.641 23.525,31.546 7.1,22.037 0.564,0.414 0.489,0.162 0.254,0 0,0"
               style="fill:#005e4b;fill-opacity:1;fill-rule:nonzero;stroke:none"
               id="path1227" />
          </g>
          <g
             id="g1229"
             transform="translate(302.5264,83.873)">
            <path
               d="m 0,0 c -0.026,0 -0.054,0.002 -0.081,0.006 -6.095,0.839 -6.75,7.382 -6.755,7.447 -0.029,0.325 0.21,0.611 0.534,0.639 C -5.972,8.136 -5.69,7.884 -5.66,7.559 -5.639,7.329 -5.075,1.884 0.08,1.174 0.402,1.13 0.629,0.832 0.584,0.51 0.543,0.214 0.29,0 0,0"
               style="fill:#005e4b;fill-opacity:1;fill-rule:nonzero;stroke:none"
               id="path1231" />
          </g>
          <g
             id="g1233"
             transform="translate(290.8779,68.0322)">
            <path
               d="m 0,0 c -0.106,0 -0.213,0.027 -0.309,0.088 -8.726,5.357 -7.178,15.776 -7.162,15.881 0.051,0.321 0.355,0.549 0.675,0.489 0.321,-0.052 0.542,-0.353 0.49,-0.674 C -6.32,15.688 -7.734,6.033 0.309,1.093 0.588,0.922 0.674,0.559 0.503,0.281 0.392,0.101 0.197,0 0,0"
               style="fill:#005e4b;fill-opacity:1;fill-rule:nonzero;stroke:none"
               id="path1235" />
          </g>
          <g
             id="g1237"
             transform="translate(288.458,62.6104)">
            <path
               d="m 0,0 c -0.049,0 -0.097,0.006 -0.146,0.017 -10.458,2.631 -10.362,15.559 -10.359,15.691 0.005,0.321 0.268,0.579 0.589,0.579 h 0.011 C -9.58,16.281 -9.32,16.013 -9.325,15.688 -9.327,15.567 -9.401,3.565 0.144,1.163 0.459,1.085 0.65,0.761 0.571,0.445 0.504,0.179 0.264,0 0,0"
               style="fill:#005e4b;fill-opacity:1;fill-rule:nonzero;stroke:none"
               id="path1239" />
          </g>
          <g
             id="g1241"
             transform="translate(304.627,75.6748)">
            <path
               d="M 0,0 C -4.838,0 -8.306,1.035 -8.521,1.101 -8.834,1.197 -9.009,1.526 -8.913,1.838 -8.818,2.15 -8.488,2.326 -8.176,2.23 -8.1,2.207 -0.377,-0.089 7.986,2.234 8.302,2.324 8.626,2.14 8.714,1.823 8.8,1.51 8.616,1.185 8.302,1.098 5.344,0.275 2.489,0 0,0"
               style="fill:#005e4b;fill-opacity:1;fill-rule:nonzero;stroke:none"
               id="path1243" />
          </g>
          <g
             id="g1245"
             transform="translate(346.4111,58.2793)">
            <path
               d="m 0,0 c 2.128,1.902 3.801,5.04 3.801,10.204 0,14.193 0.222,2.217 16.633,31.046 16.41,28.83 1.996,35.926 1.996,35.926 0,0 -10.424,6.431 -18.629,-9.979 -8.205,-16.41 -39.917,-35.483 -39.917,-51.893 0,-6.703 0.148,-11.667 0.898,-15.3 z"
               style="fill:#008367;fill-opacity:1;fill-rule:nonzero;stroke:none"
               id="path1247" />
          </g>
          <g
             id="g1249"
             transform="translate(311.9395,58.3896)">
            <path
               d="m 0,0 c 0.29,0 0.557,0.189 0.64,0.482 2.348,8.206 12.917,17.338 23.138,26.17 6.808,5.882 13.848,11.966 18.563,17.842 10.74,13.385 15.6,24.807 17.543,30.424 0.12,0.347 -0.065,0.727 -0.411,0.846 -0.348,0.121 -0.727,-0.065 -0.847,-0.412 C 56.713,69.816 51.917,58.555 41.303,45.325 36.665,39.546 29.672,33.502 22.908,27.659 12.539,18.699 1.818,9.437 -0.639,0.849 -0.74,0.495 -0.535,0.127 -0.183,0.025 -0.122,0.008 -0.061,0 0,0"
               style="fill:#005e4b;fill-opacity:1;fill-rule:nonzero;stroke:none"
               id="path1251" />
          </g>
          <g
             id="g1253"
             transform="translate(363.8213,115.5723)">
            <path
               d="m 0,0 c 3.18,0 6.879,1.254 11.013,3.735 0.315,0.191 0.418,0.598 0.228,0.912 -0.189,0.315 -0.597,0.42 -0.913,0.23 C 6.062,2.315 2.186,1.108 -0.88,1.368 -1.262,1.395 -1.569,1.129 -1.601,0.763 -1.633,0.397 -1.361,0.074 -0.996,0.043 -0.67,0.014 -0.338,0 0,0"
               style="fill:#005e4b;fill-opacity:1;fill-rule:nonzero;stroke:none"
               id="path1255" />
          </g>
          <g
             id="g1257"
             transform="translate(357.0596,107.0898)">
            <path
               d="M 0,0 C 0.315,0 0.596,0.225 0.654,0.547 2.057,8.311 -1.527,19.304 -3.133,23.67 -3.261,24.014 -3.645,24.186 -3.987,24.064 -4.332,23.937 -4.509,23.556 -4.382,23.21 -2.813,18.946 0.689,8.227 -0.655,0.783 -0.721,0.422 -0.481,0.075 -0.119,0.011 -0.079,0.004 -0.039,0 0,0"
               style="fill:#005e4b;fill-opacity:1;fill-rule:nonzero;stroke:none"
               id="path1259" />
          </g>
          <g
             id="g1261"
             transform="translate(340.9004,89.7715)">
            <path
               d="m 0,0 c 0.309,0 0.585,0.216 0.65,0.53 1.62,7.771 -0.339,17.76 -1.256,21.695 -0.083,0.358 -0.438,0.581 -0.799,0.498 -0.358,-0.085 -0.58,-0.443 -0.497,-0.8 C -1.005,18.074 0.913,8.313 -0.652,0.8 -0.728,0.441 -0.497,0.088 -0.137,0.014 -0.091,0.004 -0.045,0 0,0"
               style="fill:#005e4b;fill-opacity:1;fill-rule:nonzero;stroke:none"
               id="path1263" />
          </g>
          <g
             id="g1265"
             transform="translate(337.1387,86.4854)">
            <path
               d="M 0,0 C 0.344,0 0.635,0.265 0.662,0.613 1.067,5.841 -0.001,12.126 -2.605,19.828 -2.723,20.176 -3.1,20.36 -3.448,20.246 -3.797,20.128 -3.983,19.751 -3.865,19.402 -1.32,11.874 -0.273,5.762 -0.664,0.717 -0.693,0.351 -0.419,0.029 -0.053,0.002 -0.035,0 -0.018,0 0,0"
               style="fill:#005e4b;fill-opacity:1;fill-rule:nonzero;stroke:none"
               id="path1267" />
          </g>
          <g
             id="g1269"
             transform="translate(343.8301,92.4014)">
            <path
               d="m 0,0 c 0.117,0 0.235,0.031 0.343,0.095 6.655,4.012 15.535,3.218 20.236,2.39 0.362,-0.068 0.707,0.179 0.771,0.54 0.064,0.363 -0.177,0.706 -0.539,0.771 C 15.928,4.657 6.683,5.469 -0.344,1.235 -0.658,1.046 -0.76,0.637 -0.57,0.322 -0.445,0.114 -0.226,0 0,0"
               style="fill:#005e4b;fill-opacity:1;fill-rule:nonzero;stroke:none"
               id="path1271" />
          </g>
          <g
             id="g1273"
             transform="translate(317.708,68.1836)">
            <path
               d="M 0,0 C 0.187,0 0.374,0.079 0.505,0.232 5.672,6.256 24.583,4.834 32.474,3.941 32.845,3.903 33.168,4.164 33.21,4.529 33.251,4.895 32.988,5.223 32.623,5.265 24.522,6.18 5.074,7.607 -0.504,1.098 -0.744,0.819 -0.712,0.398 -0.433,0.159 -0.307,0.053 -0.153,0 0,0"
               style="fill:#005e4b;fill-opacity:1;fill-rule:nonzero;stroke:none"
               id="path1275" />
          </g>
          <g
             id="g1277"
             transform="translate(324.1846,74.9795)">
            <path
               d="m 0,0 c 0.312,0 0.59,0.219 0.652,0.537 1.025,5.232 -0.237,11.09 -3.75,17.411 -0.177,0.321 -0.583,0.434 -0.904,0.259 -0.321,-0.18 -0.437,-0.585 -0.259,-0.906 C -0.904,11.262 0.31,5.708 -0.653,0.792 -0.725,0.433 -0.489,0.083 -0.129,0.013 -0.085,0.003 -0.042,0 0,0"
               style="fill:#005e4b;fill-opacity:1;fill-rule:nonzero;stroke:none"
               id="path1279" />
          </g>
          <g
             id="g1281"
             transform="translate(328.2451,78.7236)">
            <path
               d="m 0,0 c 0.358,0 0.653,0.286 0.665,0.646 0.175,6.043 -1.433,11.723 -4.777,16.88 -0.2,0.308 -0.611,0.393 -0.92,0.197 C -5.34,17.522 -5.428,17.11 -5.228,16.802 -2.033,11.875 -0.498,6.453 -0.666,0.685 -0.676,0.317 -0.387,0.011 -0.021,0 Z"
               style="fill:#005e4b;fill-opacity:1;fill-rule:nonzero;stroke:none"
               id="path1283" />
          </g>
          <g
             id="g1285"
             transform="translate(315.1729,64.8633)">
            <path
               d="m 0,0 c 0.202,0 0.402,0.092 0.533,0.267 0.221,0.295 0.16,0.712 -0.135,0.931 -2.054,1.535 -3.513,6.695 -4.192,11.01 -0.058,0.362 -0.398,0.609 -0.762,0.554 C -4.918,12.704 -5.166,12.363 -5.109,12 -4.661,9.155 -3.305,2.305 -0.397,0.133 -0.278,0.043 -0.139,0 0,0"
               style="fill:#005e4b;fill-opacity:1;fill-rule:nonzero;stroke:none"
               id="path1287" />
          </g>
        </g>
      </g>
      <g
         id="g1289">
        <g
           id="g1291"
           clip-path="url(#clipPath1295)">
          <g
             id="g1297">
            <g
               id="g1299">
              <path
                 d="m 152.918,188.479 c -2.848,-7.995 3.086,-12.786 3.086,-12.786 v 0 c 19.778,-11.817 24.135,-67.682 24.222,-68.833 v 0 c -0.45,1.078 -2.858,6.773 -13.62,32.091 v 0 c -15.697,36.928 -38.243,7.599 -20.58,1.237 v 0 c 17.662,-6.363 29.098,-44.099 29.098,-44.099 v 0 c 0,0 -30.255,42.608 -41.833,22.775 v 0 l 10.777,-13.799 c -1.527,0.48 -3.141,0.193 -4.758,-1.358 v 0 c -7.055,-6.77 -0.709,-21.392 -0.709,-21.392 v 0 l 8.956,-24.737 h 96.697 c 6.901,12.92 -11.247,16.911 -18.771,17.989 v 0 c 7.405,-0.647 25.491,-0.906 24.727,12.118 v 0 c -0.959,16.36 -24.656,8.468 -24.656,8.468 v 0 c 4.496,9.535 -5.491,8.035 -5.491,8.035 v 0 c 0,0 38.442,22.757 34.174,38.702 v 0 c -4.267,15.947 -42.121,-22.023 -42.121,-22.023 v 0 c 0,0 25.84,29.238 16.931,35.036 v 0 c -8.907,5.8 -27.393,-31.735 -27.393,-31.735 v 0 c 0,0 7.182,23.645 1.179,25.421 v 0 c -6.005,1.774 -9.232,-25.532 -9.232,-25.532 v 0 c 0,0 -2.464,23.594 -12.451,49.332 v 0 c -5.979,15.414 -13.9,20.645 -19.904,20.645 v 0 c -4.023,0 -7.185,-2.348 -8.328,-5.555"
                 style="fill:url(#linearGradient1307);stroke:none"
                 id="path1309" />
            </g>
          </g>
        </g>
      </g>
      <g
         id="g1311">
        <g
           id="g1313"
           clip-path="url(#clipPath1317)">
          <g
             id="g1319">
            <g
               id="g1321">
              <path
                 d="m 147.875,57.578 h 34.686 c 0,0 23.272,26.874 10.923,32.296 v 0 c -2.867,1.258 -5.672,1.816 -8.388,1.816 v 0 C 163.847,91.693 147.875,57.578 147.875,57.578"
                 style="fill:url(#linearGradient1327);stroke:none"
                 id="path1329" />
            </g>
          </g>
        </g>
      </g>
      <g
         id="g1331">
        <g
           id="g1333"
           clip-path="url(#clipPath1337)">
          <g
             id="g1339"
             transform="translate(169.2021,57.7461)">
            <path
               d="m 0,0 c -0.056,0 -0.111,0.008 -0.167,0.023 -0.312,0.091 -0.491,0.413 -0.399,0.718 6.674,22.083 23.497,31.803 23.666,31.9 0.282,0.16 0.642,0.064 0.806,-0.212 C 24.068,32.153 23.973,31.8 23.691,31.642 23.526,31.547 7.101,22.037 0.565,0.414 0.49,0.163 0.255,0 0,0"
               style="fill:#005e4b;fill-opacity:1;fill-rule:nonzero;stroke:none"
               id="path1341" />
          </g>
          <g
             id="g1343"
             transform="translate(184.9302,83.1621)">
            <path
               d="m 0,0 c -0.026,0 -0.054,0.002 -0.081,0.005 -6.095,0.84 -6.75,7.382 -6.755,7.448 -0.029,0.324 0.21,0.611 0.534,0.639 0.33,0.044 0.611,-0.208 0.641,-0.533 C -5.639,7.329 -5.076,1.884 0.08,1.174 0.403,1.13 0.629,0.832 0.584,0.509 0.543,0.213 0.29,0 0,0"
               style="fill:#005e4b;fill-opacity:1;fill-rule:nonzero;stroke:none"
               id="path1345" />
          </g>
          <g
             id="g1347"
             transform="translate(173.2812,67.3203)">
            <path
               d="m 0,0 c -0.105,0 -0.213,0.027 -0.309,0.088 -8.726,5.357 -7.178,15.777 -7.162,15.881 0.052,0.321 0.356,0.55 0.676,0.489 0.321,-0.051 0.541,-0.352 0.49,-0.673 C -6.319,15.688 -7.734,6.033 0.31,1.094 0.588,0.922 0.675,0.559 0.504,0.281 0.392,0.101 0.198,0 0,0"
               style="fill:#005e4b;fill-opacity:1;fill-rule:nonzero;stroke:none"
               id="path1349" />
          </g>
          <g
             id="g1351"
             transform="translate(170.8618,61.8994)">
            <path
               d="m 0,0 c -0.048,0 -0.097,0.005 -0.146,0.017 -10.458,2.631 -10.362,15.559 -10.359,15.691 0.005,0.32 0.268,0.578 0.589,0.578 h 0.01 C -9.58,16.281 -9.32,16.013 -9.325,15.688 -9.327,15.567 -9.402,3.564 0.143,1.162 0.459,1.084 0.651,0.761 0.571,0.445 0.504,0.179 0.264,0 0,0"
               style="fill:#005e4b;fill-opacity:1;fill-rule:nonzero;stroke:none"
               id="path1353" />
          </g>
          <g
             id="g1355"
             transform="translate(187.0303,74.9639)">
            <path
               d="m 0,0 c -4.837,0 -8.306,1.035 -8.521,1.101 -0.312,0.096 -0.487,0.425 -0.392,0.737 0.095,0.312 0.425,0.487 0.737,0.392 0.077,-0.023 7.8,-2.32 16.162,0.004 C 8.302,2.323 8.626,2.14 8.714,1.823 8.801,1.51 8.617,1.185 8.302,1.097 5.344,0.275 2.49,0 0,0"
               style="fill:#005e4b;fill-opacity:1;fill-rule:nonzero;stroke:none"
               id="path1357" />
          </g>
          <g
             id="g1359"
             transform="translate(116.3989,78.8896)">
            <path
               d="M 0,0 C 0,0 25.877,5.321 31.489,-21.252 31.489,-21.252 10.333,-26.127 0,0"
               style="fill:#00b175;fill-opacity:1;fill-rule:nonzero;stroke:none"
               id="path1361" />
          </g>
          <g
             id="g1363"
             transform="translate(177.0674,113.3857)">
            <path
               d="M 0,0 C 0,0 12.731,-1.94 10.807,-15.039 10.807,-15.039 0.31,-13.693 0,0"
               style="fill:#00b175;fill-opacity:1;fill-rule:nonzero;stroke:none"
               id="path1365" />
          </g>
          <g
             id="g1367"
             transform="translate(218.0635,106.7646)">
            <path
               d="m 0,0 c 0,0 3.017,-12.52 -9.837,-15.689 0,0 -2.722,10.227 9.837,15.689"
               style="fill:#00b175;fill-opacity:1;fill-rule:nonzero;stroke:none"
               id="path1369" />
          </g>
          <g
             id="g1371"
             transform="translate(215.8989,73.2998)">
            <path
               d="m 0,0 c 0,0 -2.937,-12.539 -15.843,-9.589 0,0 2.169,10.36 15.843,9.589"
               style="fill:#00b175;fill-opacity:1;fill-rule:nonzero;stroke:none"
               id="path1373" />
          </g>
          <g
             id="g1375"
             transform="translate(147.1968,95.5527)">
            <path
               d="m 0,0 c 0,0 17.993,-18.269 0.728,-37.975 0,0 -15.111,14.637 -0.728,37.975"
               style="fill:#003226;fill-opacity:1;fill-rule:nonzero;stroke:none"
               id="path1377" />
          </g>
        </g>
      </g>
      <g
         id="g1379">
        <g
           id="g1381"
           clip-path="url(#clipPath1385)">
          <g
             id="g1387"
             transform="translate(260.1035,28.2402)">
            <path
               d="m 0,0 c -0.432,-0.443 -0.803,-0.932 -1.107,-1.453 l -0.465,0.24 c -0.069,0.297 -0.35,0.502 -0.66,0.467 -0.331,-0.039 -0.567,-0.34 -0.53,-0.67 0.039,-0.332 0.34,-0.568 0.67,-0.529 0.067,0.008 0.127,0.025 0.184,0.052 l 0.451,-0.234 c -0.25,-0.555 -0.432,-1.139 -0.539,-1.744 l 0.748,-0.131 c 0.228,1.305 0.85,2.506 1.791,3.473 z"
               style="fill:#000000;fill-opacity:1;fill-rule:nonzero;stroke:none"
               id="path1389" />
          </g>
          <g
             id="g1391"
             transform="translate(265.5918,30.541)">
            <path
               d="M 0,0 C -0.172,0 -0.342,-0.006 -0.51,-0.016 L -0.584,0.609 C -0.396,0.76 -0.287,0.998 -0.318,1.254 -0.363,1.646 -0.721,1.928 -1.113,1.883 -1.506,1.836 -1.787,1.48 -1.74,1.086 -1.711,0.832 -1.551,0.625 -1.336,0.523 l 0.072,-0.625 c -0.713,-0.115 -1.402,-0.332 -2.058,-0.644 l 0.326,-0.686 c 0.935,0.448 1.941,0.674 2.996,0.674 0.496,0 0.992,-0.053 1.475,-0.158 l 0.16,0.742 C 1.1,-0.059 0.551,0 0,0"
               style="fill:#000000;fill-opacity:1;fill-rule:nonzero;stroke:none"
               id="path1393" />
          </g>
          <g
             id="g1395"
             transform="translate(272.1934,27.9941)">
            <path
               d="M 0,0 C 0.332,0.041 0.566,0.342 0.525,0.672 0.486,1.004 0.186,1.238 -0.146,1.197 -0.455,1.16 -0.682,0.895 -0.676,0.59 L -1.092,0.227 C -1.51,0.656 -1.982,1.039 -2.5,1.365 L -2.904,0.725 C -1.77,0.01 -0.883,-1.002 -0.34,-2.201 l 0.69,0.312 c -0.25,0.555 -0.567,1.073 -0.942,1.545 l 0.403,0.352 C -0.129,-0.004 -0.064,-0.008 0,0"
               style="fill:#000000;fill-opacity:1;fill-rule:nonzero;stroke:none"
               id="path1397" />
          </g>
          <g
             id="g1399"
             transform="translate(265.0449,20.334)">
            <path
               d="m 0,0 c -0.387,-0.023 -0.775,-0.035 -1.158,-0.035 -0.879,0 -1.733,0.06 -2.479,0.18 -0.39,0.06 -0.845,0.154 -1.269,0.291 1.047,-1.862 3.068,-3.125 5.388,-3.125 2.856,0 5.262,1.916 5.95,4.503 C 5.75,1.365 4.926,0.988 3.973,0.691 2.793,0.324 1.418,0.084 0,0"
               style="fill:#000000;fill-opacity:1;fill-rule:nonzero;stroke:none"
               id="path1401" />
          </g>
          <g
             id="g1403"
             transform="translate(268.1699,23.418)">
            <path
               d="m 0,0 c -0.75,0 -1.361,0.611 -1.361,1.361 0,0.75 0.611,1.36 1.361,1.36 0.75,0 1.359,-0.61 1.359,-1.36 C 1.359,0.611 0.75,0 0,0 m -4.738,-0.908 c -1.02,0 -1.85,0.83 -1.85,1.849 0,1.022 0.83,1.852 1.85,1.852 1.019,0 1.849,-0.83 1.849,-1.852 0,-1.019 -0.83,-1.849 -1.849,-1.849 m 2.16,6.515 c -3.352,0 -6.08,-2.666 -6.08,-5.943 0,-0.426 0.047,-0.85 0.137,-1.262 0.673,-0.482 2.707,-0.89 5.347,-0.73 2.881,0.174 5.297,0.957 6.672,2.158 C 3.494,0.025 3.479,0.221 3.453,0.412 3.074,3.373 0.48,5.607 -2.578,5.607"
               style="fill:#000000;fill-opacity:1;fill-rule:nonzero;stroke:none"
               id="path1405" />
          </g>
          <g
             id="g1407"
             transform="translate(281.5957,27.1582)">
            <path
               d="M 0,0 C -0.295,0.115 -0.807,0.309 -1.383,0.238 -1.934,0.168 -2.227,-0.104 -2.227,-0.77 v -0.865 h 2.229 v -1.717 h -2.229 v -5.455 h -1.931 v 5.455 h -1.34 v 1.717 h 1.34 v 0.889 c 0,1.68 0.894,2.781 2.568,2.781 0.643,0 1.156,-0.121 1.59,-0.306 z"
               style="fill:#000000;fill-opacity:1;fill-rule:nonzero;stroke:none"
               id="path1409" />
          </g>
          <g
             id="g1411"
             transform="translate(286.2969,23.8262)">
            <path
               d="m 0,0 c -0.176,0.029 -0.357,0.047 -0.525,0.047 -0.895,0 -1.51,-0.549 -1.51,-1.613 v -3.909 h -1.932 v 7.172 h 1.873 V 0.912 c 0.451,0.674 1.139,0.977 2.02,0.977 0.414,0 0.847,-0.127 1.095,-0.336 z"
               style="fill:#000000;fill-opacity:1;fill-rule:nonzero;stroke:none"
               id="path1413" />
          </g>
          <g
             id="g1415"
             transform="translate(288.8516,22.6133)">
            <path
               d="M 0,0 H 3.174 C 2.996,0.918 2.441,1.437 1.613,1.437 0.703,1.437 0.17,0.889 0,0 m 5.113,-0.666 c 0,-0.221 -0.015,-0.488 -0.037,-0.65 h -5.084 c 0.207,-1.038 0.932,-1.489 1.842,-1.489 0.623,0 1.295,0.252 1.814,0.69 L 4.781,-3.359 C 3.967,-4.107 2.93,-4.447 1.725,-4.447 c -2.2,0 -3.725,1.496 -3.725,3.752 0,2.257 1.48,3.797 3.627,3.797 2.064,0 3.478,-1.532 3.486,-3.768"
               style="fill:#000000;fill-opacity:1;fill-rule:nonzero;stroke:none"
               id="path1417" />
          </g>
          <g
             id="g1419"
             transform="translate(296.5039,22.6133)">
            <path
               d="M 0,0 H 3.176 C 2.998,0.918 2.441,1.437 1.613,1.437 0.703,1.437 0.17,0.889 0,0 m 5.115,-0.666 c 0,-0.221 -0.015,-0.488 -0.037,-0.65 h -5.086 c 0.207,-1.038 0.934,-1.489 1.844,-1.489 0.621,0 1.295,0.252 1.812,0.69 L 4.781,-3.359 C 3.967,-4.107 2.932,-4.447 1.725,-4.447 c -2.2,0 -3.723,1.496 -3.723,3.752 0,2.257 1.48,3.797 3.627,3.797 2.064,0 3.478,-1.532 3.486,-3.768"
               style="fill:#000000;fill-opacity:1;fill-rule:nonzero;stroke:none"
               id="path1421" />
          </g>
          <g
             id="g1423"
             transform="translate(304.2871,21.9414)">
            <path
               d="m 0,0 c 0,-1.133 0.748,-1.977 1.844,-1.977 1.138,0 1.849,0.881 1.849,1.977 0,1.094 -0.711,1.975 -1.849,1.975 C 0.748,1.975 0,1.131 0,0 m 5.678,0 c 0,-2.154 -1.496,-3.775 -3.473,-3.775 -0.961,0 -1.643,0.377 -2.109,0.931 V -6.551 H -1.828 V 3.582 H 0.059 V 2.789 C 0.525,3.375 1.213,3.773 2.197,3.773 4.182,3.773 5.678,2.152 5.678,0"
               style="fill:#000000;fill-opacity:1;fill-rule:nonzero;stroke:none"
               id="path1425" />
          </g>
          <path
             d="m 312.809,18.352 h -1.932 v 7.172 h 1.932 z m 0.259,9.517 c 0,-0.695 -0.541,-1.228 -1.236,-1.228 -0.697,0 -1.228,0.533 -1.228,1.228 0,0.695 0.531,1.244 1.228,1.244 0.695,0 1.236,-0.549 1.236,-1.244"
             style="fill:#000000;fill-opacity:1;fill-rule:nonzero;stroke:none"
             id="path1427" />
          <g
             id="g1429"
             transform="translate(316.0312,22.9687)">
            <path
               d="M 0,0 2.703,2.555 H 5.07 L 1.592,-0.82 5.094,-4.617 H 2.717 L 0,-1.717 v -2.9 H -1.932 V 6.041 H 0 Z"
               style="fill:#000000;fill-opacity:1;fill-rule:nonzero;stroke:none"
               id="path1431" />
          </g>
          <g
             id="g1433"
             transform="translate(184.4121,20.334)">
            <path
               d="m 0,0 v 3.209 c -0.395,0.615 -1.245,1.143 -2.124,1.143 -1.42,0 -2.27,-1.172 -2.27,-2.741 0,-1.566 0.85,-2.724 2.27,-2.724 0.879,0 1.729,0.498 2.124,1.113 m 0,-1.918 v 1.055 c -0.527,-0.719 -1.391,-1.231 -2.387,-1.231 -1.846,0 -3.15,1.407 -3.15,3.705 0,2.256 1.289,3.721 3.15,3.721 0.952,0 1.816,-0.469 2.387,-1.244 v 3.764 h 1.099 v -9.77 z"
               style="fill:#000000;fill-opacity:1;fill-rule:nonzero;stroke:none"
               id="path1435" />
          </g>
          <g
             id="g1437"
             transform="translate(190.4033,24.7578)">
            <path
               d="M 0,0 C -1.509,0 -2.256,-1.273 -2.314,-2.357 H 2.329 C 2.314,-1.303 1.611,0 0,0 m -3.472,-2.797 c 0,2.051 1.465,3.705 3.487,3.705 2.138,0 3.398,-1.67 3.398,-3.793 v -0.279 h -5.727 c 0.087,-1.332 1.024,-2.445 2.548,-2.445 0.806,0 1.626,0.322 2.183,0.892 L 2.944,-5.434 C 2.241,-6.137 1.289,-6.518 0.131,-6.518 c -2.094,0 -3.603,1.508 -3.603,3.721"
               style="fill:#000000;fill-opacity:1;fill-rule:nonzero;stroke:none"
               id="path1439" />
          </g>
          <g
             id="g1441"
             transform="translate(194.6069,19.3535)">
            <path
               d="M 0,0 0.571,0.791 C 1.04,0.248 1.934,-0.221 2.9,-0.221 c 1.084,0 1.67,0.514 1.67,1.217 0,1.713 -4.38,0.658 -4.38,3.281 0,1.098 0.952,2.035 2.637,2.035 1.201,0 2.051,-0.453 2.622,-1.025 L 4.936,4.525 C 4.511,5.039 3.735,5.42 2.827,5.42 1.86,5.42 1.26,4.936 1.26,4.307 1.26,2.754 5.639,3.779 5.639,1.025 5.639,-0.162 4.687,-1.113 2.856,-1.113 1.699,-1.113 0.718,-0.762 0,0"
               style="fill:#000000;fill-opacity:1;fill-rule:nonzero;stroke:none"
               id="path1443" />
          </g>
          <path
             d="m 201.667,25.49 h 1.099 v -7.074 h -1.099 z m -0.19,1.744 c 0,0.411 0.337,0.746 0.732,0.746 0.41,0 0.747,-0.335 0.747,-0.746 0,-0.41 -0.337,-0.732 -0.747,-0.732 -0.395,0 -0.732,0.322 -0.732,0.732"
             style="fill:#000000;fill-opacity:1;fill-rule:nonzero;stroke:none"
             id="path1445" />
          <g
             id="g1447"
             transform="translate(209.708,20.4512)">
            <path
               d="m 0,0 v 3.092 c -0.381,0.615 -1.23,1.142 -2.109,1.142 -1.421,0 -2.27,-1.129 -2.27,-2.695 0,-1.553 0.849,-2.695 2.27,-2.695 0.879,0 1.728,0.541 2.109,1.156 m -5.126,-3.852 0.556,0.821 c 0.586,-0.703 1.289,-0.967 2.299,-0.967 1.172,0 2.271,0.57 2.271,2.123 v 1.012 c -0.513,-0.719 -1.377,-1.26 -2.373,-1.26 -1.846,0 -3.149,1.377 -3.149,3.662 0,2.27 1.289,3.676 3.149,3.676 0.952,0 1.802,-0.469 2.373,-1.244 V 5.039 H 1.099 V -1.83 c 0,-2.344 -1.641,-3.076 -3.37,-3.076 -1.201,0 -2.021,0.234 -2.855,1.054"
               style="fill:#000000;fill-opacity:1;fill-rule:nonzero;stroke:none"
               id="path1449" />
          </g>
          <g
             id="g1451"
             transform="translate(217.4126,18.416)">
            <path
               d="M 0,0 V 4.629 C 0,5.873 -0.63,6.27 -1.582,6.27 -2.446,6.27 -3.267,5.742 -3.676,5.17 V 0 h -1.099 v 7.074 h 1.099 V 6.049 c 0.498,0.586 1.464,1.201 2.519,1.201 1.479,0 2.256,-0.746 2.256,-2.285 L 1.099,0 Z"
               style="fill:#000000;fill-opacity:1;fill-rule:nonzero;stroke:none"
               id="path1453" />
          </g>
          <g
             id="g1455"
             transform="translate(223.4033,24.7578)">
            <path
               d="M 0,0 C -1.509,0 -2.256,-1.273 -2.314,-2.357 H 2.329 C 2.314,-1.303 1.611,0 0,0 m -3.472,-2.797 c 0,2.051 1.465,3.705 3.487,3.705 2.138,0 3.398,-1.67 3.398,-3.793 v -0.279 h -5.727 c 0.088,-1.332 1.025,-2.445 2.548,-2.445 0.806,0 1.626,0.322 2.183,0.892 L 2.944,-5.434 C 2.241,-6.137 1.289,-6.518 0.132,-6.518 c -2.094,0 -3.604,1.508 -3.604,3.721"
               style="fill:#000000;fill-opacity:1;fill-rule:nonzero;stroke:none"
               id="path1457" />
          </g>
          <g
             id="g1459"
             transform="translate(233.3496,20.334)">
            <path
               d="m 0,0 v 3.209 c -0.396,0.615 -1.245,1.143 -2.124,1.143 -1.421,0 -2.271,-1.172 -2.271,-2.741 0,-1.566 0.85,-2.724 2.271,-2.724 0.879,0 1.728,0.498 2.124,1.113 m 0,-1.918 v 1.055 c -0.527,-0.719 -1.392,-1.231 -2.388,-1.231 -1.845,0 -3.149,1.407 -3.149,3.705 0,2.256 1.288,3.721 3.149,3.721 0.952,0 1.817,-0.469 2.388,-1.244 v 3.764 h 1.098 v -9.77 z"
               style="fill:#000000;fill-opacity:1;fill-rule:nonzero;stroke:none"
               id="path1461" />
          </g>
          <g
             id="g1463"
             transform="translate(242.8994,19.2207)">
            <path
               d="m 0,0 c 1.436,0 2.285,1.158 2.285,2.725 0,1.568 -0.849,2.74 -2.285,2.74 -0.864,0 -1.728,-0.528 -2.109,-1.143 V 1.113 C -1.728,0.498 -0.864,0 0,0 m -3.208,-0.805 v 9.77 h 1.099 V 5.201 c 0.571,0.776 1.421,1.244 2.387,1.244 1.846,0 3.15,-1.465 3.15,-3.72 0,-2.299 -1.304,-3.705 -3.15,-3.705 -0.996,0 -1.86,0.511 -2.387,1.23 v -1.055 z"
               style="fill:#000000;fill-opacity:1;fill-rule:nonzero;stroke:none"
               id="path1465" />
          </g>
          <g
             id="g1467"
             transform="translate(247.5278,16.6426)">
            <path
               d="m 0,0 c 0.161,-0.072 0.425,-0.117 0.601,-0.117 0.483,0 0.805,0.162 1.054,0.748 L 2.124,1.699 -0.834,8.848 H 0.352 L 2.71,3.047 5.054,8.848 H 6.255 L 2.71,0.338 C 2.286,-0.687 1.567,-1.084 0.63,-1.098 c -0.234,0 -0.601,0.043 -0.806,0.104 z"
               style="fill:#000000;fill-opacity:1;fill-rule:nonzero;stroke:none"
               id="path1469" />
          </g>
        </g>
      </g>
    </g>
  </g>
</svg>
