<?xml version="1.0" encoding="UTF-8" standalone="no"?>
<svg
   xmlns:dc="http://purl.org/dc/elements/1.1/"
   xmlns:cc="http://creativecommons.org/ns#"
   xmlns:rdf="http://www.w3.org/1999/02/22-rdf-syntax-ns#"
   xmlns:svg="http://www.w3.org/2000/svg"
   xmlns="http://www.w3.org/2000/svg"
   xmlns:sodipodi="http://sodipodi.sourceforge.net/DTD/sodipodi-0.dtd"
   xmlns:inkscape="http://www.inkscape.org/namespaces/inkscape"
   inkscape:version="1.0 (4035a4fb49, 2020-05-01)"
   sodipodi:docname="commerce-and-shopping.svg"
   version="1.1"
   width="512"
   viewBox="0 0 512 512"
   height="512"
   enable-background="new 0 0 512 512"
   id="Capa_1">
  <metadata
     id="metadata33">
    <rdf:RDF>
      <cc:Work
         rdf:about="">
        <dc:format>image/svg+xml</dc:format>
        <dc:type
           rdf:resource="http://purl.org/dc/dcmitype/StillImage" />
      </cc:Work>
    </rdf:RDF>
  </metadata>
  <defs
     id="defs31" />
  <sodipodi:namedview
     inkscape:current-layer="g26"
     inkscape:window-maximized="1"
     inkscape:window-y="-8"
     inkscape:window-x="-8"
     inkscape:cy="231.86324"
     inkscape:cx="256"
     inkscape:zoom="1.0507812"
     showgrid="false"
     id="namedview29"
     inkscape:window-height="705"
     inkscape:window-width="1366"
     inkscape:pageshadow="2"
     inkscape:pageopacity="0"
     guidetolerance="10"
     gridtolerance="10"
     objecttolerance="10"
     borderopacity="1"
     bordercolor="#666666"
     pagecolor="#ffffff" />
  <g
     id="g26">
    <path
       id="path2"
       fill="#2b4d66"
       d="m 122.474,336.401 53.126,53.126 c 4.023,4.023 10.546,4.023 14.569,0 l 33.332,-33.332 -67.695,-67.695 -33.332,33.332 c -4.023,4.023 -4.023,10.545 0,14.569 z" />
    <path
       style="stroke-width:0.999849"
       id="path4"
       fill="#4a80aa"
       d="M 169.42089,383.272 128.8101,342.66121 88.199311,383.272 128.8101,423.88279 Z" />
    <path
       style="fill:#28a745;fill-opacity:1"
       id="path6"
       fill="#9d66d5"
       d="M 6.9063105e-7,448.577 0.02200069,501.681 c 0.002,5.686 4.61100001,10.295 10.29800031,10.298 l 53.103,0.021 c 2.734,10e-4 5.356,-1.084 7.289,-3.017 L 134.982,444.713 c 4.023,-4.023 4.023,-10.546 0,-14.569 L 81.856001,377.018 c -4.023,-4.023 -10.546,-4.023 -14.569,0 l -64.2700003,64.27 c -1.933,1.933 -3.01800000937,4.555 -3.01700000936895,7.289 z" />
    <path
       style="fill:#288b45;fill-opacity:1"
       id="path8"
       fill="#8659b9"
       d="m 0.00100069,448.578 0.025,40.831 97.11100031,-97.111 -15.28,-15.28 c -4.023,-4.023 -10.546,-4.023 -14.569,0 l -64.2700003,64.27 c -1.933,1.932 -3.01900000937,4.555 -3.01700001,7.29 z" />
    <circle
       transform="scale(-1,1)"
       style="fill:#28a745;fill-opacity:1"
       id="circle10"
       r="191.47"
       fill="#9d66d5"
       cy="191.47"
       cx="-320.53" />
    <path
       style="fill:#288b45;fill-opacity:1"
       id="path12"
       fill="#8659b9"
       d="m 204.74,38.982 c -24.455,32.156 -38.982,72.274 -38.982,115.79 0,105.746 85.724,191.47 191.47,191.47 43.516,0 83.634,-14.527 115.79,-38.982 -34.972,45.985 -90.258,75.68 -152.488,75.68 -105.746,0 -191.47,-85.724 -191.47,-191.47 0,-62.23 29.695,-117.517 75.68,-152.488 z" />
    <circle
       transform="scale(-1,1)"
       id="circle14"
       r="140.411"
       fill="#e4f6ff"
       cy="191.47"
       cx="-320.53" />
    <path
       id="path16"
       fill="#d3effb"
       d="m 235.738,79.553 c -17.878,23.561 -28.494,52.935 -28.494,84.792 0,77.547 62.864,140.411 140.411,140.411 31.857,0 61.231,-10.616 84.792,-28.494 -25.641,33.791 -66.227,55.619 -111.917,55.619 -77.547,0 -140.411,-62.864 -140.411,-140.411 0,-45.69 21.828,-86.276 55.619,-111.917 z" />
    <g
       transform="translate(129.06099)"
       id="g24"
       fill="#dd636e">
      <circle
         id="circle18"
         r="26.792999"
         cy="145.093"
         cx="146.617" />
      <circle
         id="circle20"
         r="26.792999"
         cy="237.847"
         cx="236.32201" />
      <path
         id="path22"
         d="m 235.144,120.433 c -3.658,-2.196 -8.405,-1.009 -10.601,2.65 l -77.294,128.824 c -2.195,3.659 -1.008,8.405 2.651,10.601 1.244,0.747 2.615,1.102 3.968,1.102 2.625,0 5.184,-1.338 6.633,-3.752 l 77.294,-128.824 c 2.195,-3.66 1.008,-8.406 -2.651,-10.601 z" />
    </g>
  </g>
</svg>
